<?xml version="1.0" encoding="UTF-8"?>
<svg width="100px" height="40px" viewBox="0 0 100 40" version="1.1" xmlns="http://www.w3.org/2000/svg" xmlns:xlink="http://www.w3.org/1999/xlink">
    <title>反白logo</title>
    <g id="页面-1" stroke="none" stroke-width="1" fill="none" fill-rule="evenodd">
        <g id="反白logo" fill="#FFFFFF">
            <path d="M23.3683843,27.3684211 C27.8575672,27.3684211 31.5052687,30.9499284 31.5777738,35.3953917 L31.5789474,35.5303644 L31.5789474,36.161737 C28.2641419,38.5750617 24.1753964,40 19.7518591,40 C18.1866129,40 16.6632848,39.8215889 15.2013304,39.4841074 C15.1783465,39.2620091 15.164338,39.0373034 15.159654,38.810328 L15.1578947,38.6396761 L15.1578947,35.5303644 L15.1589947,35.3953917 C15.2314998,30.9499284 18.8792014,27.3684211 23.3683843,27.3684211 Z M20,0 C31.045695,0 40,8.9596558 40,20.0119513 C40,25.0452114 38.1429413,29.6444729 35.0770092,33.1611632 C33.9805436,27.8285937 29.2631036,23.8191031 23.6097561,23.8191031 C20.5120176,23.8191031 17.6952822,25.0229391 15.6013328,26.9885643 L15.5120359,27.0732705 L15.5121951,23.0380655 L15.4820573,23.0381489 L15.4819977,16.2554196 C15.3420335,15.2806905 15.6356561,14.2556198 16.3628656,13.4921088 L16.41966,13.4338983 L17.5234365,12.3294623 C18.8188341,11.0332906 20.9190887,11.0332906 22.2144863,12.3294623 C23.4928393,13.6085792 23.5096597,15.6719802 22.2649476,16.9717361 L22.2144863,17.0233154 L21.1107099,18.1277514 L21.0657244,18.1719333 C20.9847932,18.2499497 20.9008775,18.3230468 20.8143538,18.3912245 L20.7269746,18.4577624 L18.9941463,20.1748921 L18.9941463,20.3047258 L24.1777561,20.3047258 L24.9739274,19.5082964 L24.9719981,19.5064689 C27.5783749,16.7523489 27.5330273,12.4051104 24.8359554,9.70642678 C22.1658519,7.03472776 17.8809621,6.96354117 15.1248077,9.49286702 L15.0417591,9.57030925 L15.0399395,9.56837227 L13.6602189,10.9489173 L13.6620206,10.9508797 C13.5249539,11.0957237 13.3952212,11.2449737 13.2728226,11.3981584 L13.1823989,11.5137772 L7.0451722,17.673653 C6.75346468,17.9664291 6.58966003,18.3629823 6.58966003,18.7763984 C6.58966003,19.6227408 7.26240886,20.3118603 8.10201528,20.3375636 L8.15063563,20.3383068 L11.8721951,20.3383068 L11.8723012,38.2667557 L11.902439,38.2666723 L11.9024832,38.3157895 C4.89098964,35.2056387 0,28.1803123 0,20.0119513 C0,8.9596558 8.954305,0 20,0 Z" id="形状备份-5"></path>
            <g id="编组-3" transform="translate(45.000000, 7.500000)">
                <path d="M9.60100309,3.6259542 L23.3215321,3.6259542 C23.596814,3.6259542 23.8204225,3.41233429 23.8204225,3.14885496 L23.8204225,2.91041614 C23.8204225,2.25160702 23.2619804,1.71755725 22.5730806,1.71755725 L9.60100309,1.71755725 C9.32548953,1.71755725 9.10211268,1.93117716 9.10211268,2.19465649 L9.10211268,3.14885496 C9.10211268,3.41233429 9.32548953,3.6259542 9.60100309,3.6259542" id="Fill-1"></path>
                <path d="M7.8551126,9.77273023 L11.9570719,9.77273023 C11.6511583,14.4876138 9.19210207,17.4444551 8.24349376,18.112742 C8.05022461,18.2491593 7.98526406,18.4968825 8.08109239,18.706825 L8.56829651,19.6002118 C8.70789258,19.8563055 9.04283102,19.9384274 9.28562684,19.7726 C10.4931559,18.9477612 13.6156391,15.4737555 13.9427454,9.77273023 L17.9451906,9.77273023 L17.9451906,16.0212349 C17.9371281,16.3135255 17.9380496,18.1554996 19.1474215,19.3861972 C19.8117698,20.0624021 20.7251336,20.4198473 21.7889202,20.4198473 L21.8787592,20.4193949 C24.0171592,20.385234 25.7570423,18.6362409 25.7570423,16.5198484 L25.7570423,16.0361661 C25.7570423,15.3633547 25.2018829,14.8181376 24.5170329,14.8181376 L24.3608511,14.8181376 C24.0362788,14.8181376 23.7729812,15.0767198 23.7729812,15.3954795 L23.7729812,16.5198484 C23.7729812,17.5788364 22.9089138,18.454351 21.8529593,18.4710921 L21.7889202,18.4715446 C21.2646286,18.4715446 20.8688761,18.3296976 20.5797786,18.0380857 C20.0177086,17.4713766 19.919116,16.422569 19.9283302,16.0707795 L19.9287909,9.77273023 L24.9669193,9.77273023 L24.9669193,9.04222982 C24.9669193,8.36964458 24.4117599,7.82442748 23.7269099,7.82442748 L7.8551126,7.82442748 C7.58144901,7.82442748 7.35915493,8.04251432 7.35915493,8.31150317 L7.35915493,9.28588078 C7.35915493,9.55464339 7.58144901,9.77273023 7.8551126,9.77273023" id="Fill-3"></path>
                <path d="M31.0266155,4.94468387 L31.8675959,5.46090255 C32.0997726,5.60344904 32.4045189,5.5321758 32.5482802,5.30196094 L33.6816058,3.48688412 L36.1239396,3.48688412 L36.6785457,4.55939846 C36.9899519,5.16169154 37.7349383,5.39964855 38.3421344,5.09110143 L39.0023798,4.75545681 L38.3464978,3.48688412 L41.3365482,3.48688412 C41.6096028,3.48688412 41.8309859,3.26737163 41.8309859,2.99639667 L41.8309859,2.75115294 C41.8309859,2.07439867 41.277528,1.52538974 40.5947769,1.52538974 L34.9061026,1.52538974 L35.2416221,0.987766308 C35.3853833,0.757323737 35.3137324,0.455152499 35.0815556,0.312606007 L34.8711957,0.183722118 C34.2906391,-0.172644112 33.5288881,0.00519743785 33.169485,0.580620737 L30.8665491,4.26975127 C30.7225581,4.49996614 30.7942091,4.80213737 31.0266155,4.94468387" id="Fill-5"></path>
                <path d="M1.77997839,4.94468387 L2.60808536,5.46090255 C2.83670802,5.60344904 3.13678938,5.5321758 3.27835,5.30196094 L5.93046322,0.987766308 C6.07202383,0.757323737 6.0016958,0.455152499 5.77284701,0.312606007 L5.5657072,0.183722118 C4.99426363,-0.172644112 4.24394715,0.00519743785 3.89004562,0.580620737 L1.62213604,4.26975127 C1.48080156,4.49996614 1.55135574,4.80213737 1.77997839,4.94468387" id="Fill-7"></path>
                <path d="M43.22722,4.94468387 L44.0682081,5.46090255 C44.3006167,5.60344904 44.6051361,5.5321758 44.7488987,5.30196094 L45.8824644,3.48688412 L48.3248208,3.48688412 L48.8792024,4.55939846 C49.1906114,5.16169154 49.9356047,5.39964855 50.5430361,5.09110143 L51.2030579,4.75545681 L50.5473995,3.48688412 L53.5374776,3.48688412 C53.8103049,3.48688412 54.0316901,3.26737163 54.0316901,2.99639667 L54.0316901,2.75115294 C54.0316901,2.07439867 53.4782272,1.52538974 52.7954697,1.52538974 L47.1067429,1.52538974 L47.4424951,0.987766308 C47.5860281,0.757323737 47.5146061,0.455152499 47.2821976,0.312606007 L47.0718357,0.183722118 C46.4915033,-0.172644112 45.7295157,0.00519743785 45.3703389,0.580620737 L43.0671521,4.26975127 C42.9233895,4.49996614 42.9948115,4.80213737 43.22722,4.94468387" id="Fill-9"></path>
                <path d="M38.6746185,18.8660061 L47.3732174,18.8660061 L47.3732174,16.9030095 L38.6746185,16.9030095 L38.6746185,18.8660061 Z M34.964503,14.4493208 L34.964503,13.4679364 L50.5475397,13.4679364 L50.5475397,14.4493208 C50.5475397,14.7203068 50.3262837,14.9400129 50.0531027,14.9400129 L35.4591697,14.9400129 C35.1862184,14.9400129 34.964503,14.7203068 34.964503,14.4493208 L34.964503,14.4493208 Z M35.4591697,8.0698668 L50.0531027,8.0698668 C50.3262837,8.0698668 50.5475397,8.28980082 50.5475397,8.56055896 L50.5475397,9.17386719 L34.964503,9.17386719 L34.964503,8.56055896 C34.964503,8.28980082 35.1862184,8.0698668 35.4591697,8.0698668 L35.4591697,8.0698668 Z M34.964503,11.873016 L50.5475397,11.873016 L50.5475397,10.7687877 L34.964503,10.7687877 L34.964503,11.873016 Z M53.7632182,18.8660061 L49.3521142,18.8660061 L49.3521142,16.9030095 L51.5371029,16.9030095 C52.0836948,16.9030095 52.5264365,16.4635973 52.5264365,15.9216252 L52.5264365,7.08848247 C52.5264365,6.54651035 52.0836948,6.10687023 51.5371029,6.10687023 L34.2223879,6.10687023 C33.5395502,6.10687023 32.9858359,6.65636341 32.9858359,7.3337146 L32.9858359,15.6761651 C32.9858359,16.3537442 33.5395502,16.9030095 34.2223879,16.9030095 L36.6961812,16.9030095 L36.6961812,18.8660061 L30.5122724,18.8660061 C30.2388616,18.8660061 30.0176056,19.0857122 30.0176056,19.3566982 L30.0176056,20.3380826 C30.0176056,20.6090686 30.2388616,20.8287747 30.5122724,20.8287747 L36.3956591,20.8287747 C36.1337362,21.3479558 35.6438943,21.9899808 34.7205011,22.5565673 C34.3322118,22.7954179 33.8924569,22.948574 33.4306454,23.0085146 C33.1788318,23.0411058 32.9858359,23.2444023 32.9858359,23.4962439 L32.9858359,24.4835539 C32.9858359,24.7702658 33.2332842,25.0022791 33.5211697,24.9737902 C34.3209537,24.895161 35.0869634,24.6405845 35.7622192,24.2257867 C37.5520259,23.1270282 38.2417564,21.7440649 38.5078149,20.8287747 L47.3734471,20.8287747 L47.3734471,24.5093078 C47.3734471,24.7802939 47.5949329,25 47.8681139,25 L48.8576772,25 C49.1308582,25 49.3521142,24.7802939 49.3521142,24.5093078 L49.3521142,20.8287747 L54.5053332,20.8287747 C54.7785143,20.8287747 55,20.6090686 55,20.3380826 L55,20.0928504 C55,19.4152713 54.4462857,18.8660061 53.7632182,18.8660061 L53.7632182,18.8660061 Z" id="Fill-11"></path>
                <path d="M11.2186393,22.396305 L11.1298557,22.4001491 C10.9569126,22.4157519 7.07609856,22.6744417 5.22482194,18.4241506 L5.2269028,8.31127983 C5.2269028,8.04241432 5.00401899,7.82442748 4.72934475,7.82442748 L1.24435754,7.82442748 C0.557209526,7.82442748 0,8.36939458 0,9.04144529 L0,9.77183688 L3.23597698,9.77183688 L3.23597698,18.4252812 C3.23597698,18.4750293 3.23320249,18.5240989 3.22649748,18.5736208 C3.16175945,19.0627344 2.76570139,21.1976035 0.674894027,22.7221546 C0.182653745,23.0810188 0.0326002254,23.7388235 0.321378108,24.2684139 L0.475824566,24.5510732 C0.610849613,24.7989089 0.932921343,24.8834805 1.17800105,24.7376283 C2.94165012,23.6883971 3.9390783,22.2995224 4.502068,21.1078309 C6.40559747,23.6375184 9.10771686,24.3615784 10.8161074,24.3613523 C10.974022,24.3613523 11.1236131,24.3552469 11.2630311,24.3437144 L25.4526838,24.3437144 C25.7278204,24.3437144 25.9507042,24.1257275 25.9507042,23.8570881 L25.9507042,23.6135489 C25.9507042,22.9412721 25.3934947,22.396305 24.7061155,22.396305 L11.2186393,22.396305 Z" id="Fill-13"></path>
                <polygon id="Fill-14" points="8.12034331 18.8931298 8.12034331 18.8928924 7.95360035 18.5114504"></polygon>
                <path d="M8.32746479,19.2748092 L8.13380282,18.7022901 C8.13760335,18.7151116 8.14008196,18.7289797 8.14454346,18.7418012 L8.32746479,19.2748092 Z" id="Fill-15"></path>
            </g>
        </g>
    </g>
</svg>